<svg xmlns="http://www.w3.org/2000/svg" width="512" height="512" viewBox="0 0 512 512" version="1.1">
	<path d="M 235.500 28.561 C 203.817 40.548, 177.490 48.335, 147.517 54.585 C 119.435 60.441, 102.307 60.373, 74.721 54.299 C 61.747 51.442, 59.550 51.705, 56.413 56.493 C 54.842 58.890, 54.804 62.113, 55.880 100.918 C 59.754 240.634, 68.692 303.885, 91.009 349.519 C 105.288 378.715, 124.044 400.889, 153.366 423.238 C 174.502 439.347, 204.433 457.345, 227 467.514 C 242.031 474.287, 254.525 479, 257.451 479 C 262.814 479, 294.393 464.421, 316 451.970 C 361.259 425.888, 394.767 397.124, 413.235 368.500 C 418.628 360.140, 426.875 343.884, 431.035 333.411 C 440.698 309.086, 448.279 269.809, 452.441 222.500 C 456.020 181.827, 460.104 64.035, 458.117 58.808 C 456.787 55.311, 452.307 52, 448.904 52 C 447.350 52, 440.098 53.336, 432.789 54.969 C 406.234 60.903, 394.661 60.976, 365.500 55.391 C 337.998 50.124, 312.805 42.580, 280.322 29.886 C 267.029 24.691, 258.840 22.022, 256.322 22.065 C 254.191 22.101, 244.980 24.975, 235.500 28.561 M 243.895 41.926 C 204.183 57.663, 170.308 67.280, 137.500 72.130 C 125.647 73.882, 94.256 73.668, 82.500 71.755 C 77.550 70.949, 72.882 70.519, 72.127 70.799 C 68.976 71.968, 73.733 184.529, 79.088 235.500 C 84.005 282.308, 91.832 314.692, 104.950 342.500 C 121.769 378.152, 148.165 404.302, 198.067 434.748 C 220.956 448.712, 254.572 464.564, 258.997 463.479 C 263.012 462.495, 292.310 447.841, 307 439.469 C 324.822 429.312, 346.395 415.001, 358.623 405.222 C 371.129 395.220, 387.682 378.004, 395.700 366.658 C 407.101 350.525, 417.381 327.909, 423.955 304.496 C 435.244 264.294, 441.691 194.888, 442.255 107.500 L 442.500 69.500 440 69.678 C 438.625 69.775, 433.450 70.595, 428.500 71.500 C 415.808 73.819, 392.600 74.543, 378.858 73.047 C 345.275 69.391, 317.136 61.814, 276.478 45.478 C 266.242 41.365, 256.884 38.027, 255.683 38.060 C 254.482 38.093, 249.178 39.833, 243.895 41.926 M 200 75.658 C 194.892 76.703, 196.112 77.716, 203.201 78.316 C 216.553 79.446, 230.423 85.730, 240.292 95.122 C 243.563 98.234, 246.053 101.341, 245.825 102.025 C 245.597 102.710, 241.956 104.489, 237.733 105.979 C 233.511 107.469, 228.230 109.954, 225.999 111.501 C 222.488 113.934, 221.098 114.286, 215.694 114.111 C 205.498 113.781, 180.172 115.900, 170.500 117.893 C 161.526 119.742, 146.434 125.817, 148.687 126.673 C 149.340 126.922, 152.460 126.647, 155.621 126.062 C 168.305 123.718, 182.751 125.282, 192.003 130.001 C 196.382 132.235, 203 137.713, 203 139.104 C 203 139.597, 196.975 140, 189.610 140 C 181.657 140, 172.880 140.634, 167.991 141.561 C 157.864 143.482, 142.652 148.904, 134.327 153.560 C 127.620 157.310, 124.925 159.878, 129.094 158.546 C 130.417 158.123, 136.377 157.551, 142.339 157.275 C 160.993 156.411, 175.749 161.660, 187.353 173.289 L 193.500 179.449 178 180.128 C 160.358 180.900, 148.039 183.611, 135.188 189.549 C 123.386 195.002, 115.573 201.915, 125.250 198.342 C 136.116 194.331, 158.991 195.925, 171.790 201.586 C 180.665 205.511, 181.124 206.162, 178.994 211.801 C 176.641 218.031, 174 233.801, 174 241.624 L 174 247.895 167.750 244.970 C 156.700 239.800, 147.046 237.808, 130.500 237.286 C 119.512 236.939, 114.698 237.159, 112.500 238.110 L 109.500 239.407 113 239.745 C 120.837 240.500, 134.025 244.410, 142.553 248.505 C 157.982 255.915, 168.375 265.077, 176.321 278.273 L 179.728 283.931 177.363 288.716 C 172.301 298.951, 170.613 316.791, 173.442 330.138 C 177.802 350.711, 193.995 374.317, 211.736 385.964 C 215.877 388.683, 223.122 392.302, 227.836 394.008 L 236.406 397.109 244.953 394.459 C 249.654 393.001, 257.006 389.992, 261.291 387.771 C 275.560 380.378, 292.394 361.976, 300.120 345.326 C 304.208 336.517, 310.374 318.880, 311.535 312.675 C 312.461 307.728, 313.803 309.046, 315.595 316.660 C 317.243 323.666, 317.387 335.978, 315.947 346.678 C 315.038 353.425, 314.491 354.843, 311.967 357 C 310.358 358.375, 308.372 361.424, 307.555 363.777 C 305.068 370.937, 302.877 383.164, 303.540 386.183 L 304.166 389.033 311.333 382.367 C 315.275 378.701, 320.863 374.180, 323.750 372.320 L 329 368.939 328.983 350.219 C 328.959 325.145, 327.075 316.584, 318.710 303.548 L 315.521 298.579 315.511 279.745 L 315.500 260.911 318 261.519 C 321.938 262.476, 337.677 269.857, 347 275.119 C 362.640 283.946, 370.727 292.037, 378.964 307.100 C 380.499 309.908, 381.988 311.821, 382.273 311.352 C 382.558 310.884, 383.092 306.450, 383.458 301.500 C 383.825 296.550, 384.869 287.100, 385.778 280.500 C 388.151 263.280, 387.984 242.984, 385.417 236.500 C 384.328 233.750, 383.017 231.500, 382.504 231.500 C 381.990 231.500, 380.628 234.891, 379.477 239.035 C 378.326 243.179, 377.046 247.117, 376.633 247.785 C 375.528 249.573, 373.029 249.263, 372.329 247.250 C 370.022 240.615, 365.506 230.616, 363.969 228.741 L 362.132 226.500 361.436 230.763 L 360.740 235.026 357.620 230.965 C 355.904 228.732, 350.113 223.091, 344.750 218.431 C 335.599 210.478, 335.004 209.729, 335.070 206.229 C 335.109 204.178, 335.477 201.643, 335.888 200.596 C 336.608 198.759, 336.706 198.768, 338.645 200.850 C 339.751 202.037, 342.421 205.471, 344.578 208.482 C 346.735 211.493, 348.769 213.967, 349.098 213.978 C 349.729 214.001, 350.932 211.365, 356.064 198.704 C 357.803 194.416, 359.706 191.069, 360.293 191.264 C 360.881 191.460, 363.598 195.809, 366.332 200.929 C 371.117 209.889, 371.351 210.148, 372.587 207.868 C 373.294 206.566, 374.857 201.538, 376.061 196.696 C 378.215 188.033, 380.131 184.561, 382.366 185.271 C 382.990 185.469, 384.944 190.067, 386.709 195.488 C 391.233 209.382, 390.929 208.727, 392.039 206.972 C 393.101 205.293, 395.359 198.560, 397.018 192.123 C 398.524 186.276, 399.863 187.778, 402 197.713 L 403.675 205.500 406.327 200.305 C 411.067 191.017, 414.128 177.008, 414.698 162 C 415.194 148.918, 415.113 148.200, 412.080 138.818 C 409.675 131.378, 408.231 128.531, 405.849 126.526 C 404.143 125.091, 402.321 124.060, 401.799 124.234 C 400.636 124.621, 400.697 125.031, 402.598 129.580 C 405.500 136.525, 403.411 136.633, 400.029 129.713 C 395.749 120.956, 388.859 114.596, 381.257 112.386 C 373.587 110.156, 357.660 110.876, 349.572 113.817 L 343.645 115.973 338.308 113.362 C 335.373 111.926, 330.920 110.520, 328.412 110.237 C 324.571 109.804, 323.037 108.906, 318.664 104.533 C 309.715 95.585, 293.126 89.001, 275.505 87.404 C 267.231 86.654, 265.893 87.625, 271.507 90.302 C 275.017 91.976, 279.814 98.221, 278.045 98.816 C 277.529 98.989, 274.045 96.592, 270.303 93.489 C 262.845 87.304, 248.881 80.048, 239.500 77.485 C 233.516 75.849, 205.418 74.550, 200 75.658 M 246.500 108.497 C 234.354 110.783, 225.515 114.988, 221.125 120.569 C 218.989 123.283, 218.258 127, 219.859 127 C 220.332 127, 224.044 125.481, 228.109 123.625 C 239.199 118.561, 244.772 117.509, 260 117.603 C 275.331 117.698, 284.304 119.809, 300 127.013 C 308.603 130.962, 320.130 134.457, 322.235 133.755 C 324.156 133.115, 314.947 123.966, 307.401 119.019 C 291.892 108.851, 267.249 104.594, 246.500 108.497 M 361.635 125.637 C 358.389 128.884, 356.485 134.853, 357.482 138.659 L 358.227 141.500 359.214 139 C 362.247 131.324, 363.094 130.014, 365.399 129.436 C 368.975 128.538, 371.741 129.720, 376.646 134.241 C 379.041 136.449, 381 137.725, 381 137.078 C 381 134.712, 378.031 130.261, 374.062 126.675 C 369.085 122.179, 365.402 121.871, 361.635 125.637 M 280.096 129.306 C 278.224 129.963, 276.230 131.242, 275.665 132.149 C 273.321 135.912, 282.636 143.914, 290.232 144.662 C 298.097 145.436, 305.635 138.880, 301.965 134.458 C 300.962 133.250, 300.343 133.492, 297.987 136.013 C 294.753 139.476, 292.981 139.741, 290.606 137.118 C 289.413 135.799, 289.108 134.420, 289.587 132.510 C 290.688 128.122, 287.012 126.881, 280.096 129.306 M 172.664 145.963 C 160.569 147.213, 160.502 148.999, 172.550 149.004 C 193.878 149.013, 219.098 155.641, 223.528 162.402 C 224.997 164.644, 224.879 165.150, 221.453 171.384 C 217.380 178.795, 215.030 186.514, 215.012 192.540 C 214.984 202.187, 220.086 215.117, 229.900 230.266 C 238.960 244.252, 240.362 247.955, 240.400 258 C 240.439 268.251, 239.301 273.085, 232.347 292.218 C 225.861 310.064, 224.350 318.743, 225.926 329.103 C 226.991 336.111, 232.453 354.619, 233.942 356.268 C 234.613 357.011, 246.194 350.113, 247.311 348.306 C 247.615 347.814, 246.994 345.470, 245.932 343.097 C 244.869 340.723, 244 337.784, 244 336.565 C 244 333.811, 247.914 330, 250.742 330 C 252.706 330, 252.815 330.389, 252.288 335.500 C 251.932 338.951, 252.101 341, 252.743 341 C 253.848 341, 262 328.999, 262 327.371 C 262 326.827, 260.395 323.716, 258.432 320.458 C 255.613 315.776, 254.989 313.870, 255.459 311.368 C 256.288 306.946, 259.643 303, 262.573 303 C 265.434 303, 265.552 303.989, 263.371 309.698 C 262.011 313.259, 261.949 314.462, 262.992 316.982 C 263.680 318.642, 264.606 320, 265.049 320 C 266.103 320, 269.890 309.896, 271.265 303.416 C 272.216 298.932, 272.116 298.029, 270.422 295.771 C 269.365 294.362, 267.003 292.181, 265.173 290.923 C 262.150 288.846, 261.906 288.310, 262.503 285.068 C 263.604 279.085, 265.267 276.500, 268.013 276.500 C 270.410 276.500, 270.489 276.708, 270.192 282.268 C 269.950 286.795, 270.304 288.571, 271.835 290.518 C 273.579 292.735, 273.859 292.813, 274.467 291.249 C 274.841 290.287, 275.406 285.559, 275.722 280.743 C 276.376 270.784, 275.889 269.777, 268.251 265.301 C 264.283 262.976, 264 262.520, 264 258.462 C 264 255.102, 264.505 253.760, 266.223 252.557 C 269.565 250.215, 269.997 250.577, 270.032 255.750 C 270.056 259.373, 270.661 261.180, 272.583 263.365 C 273.969 264.941, 275.344 265.990, 275.639 265.695 C 275.933 265.400, 275.633 262.535, 274.972 259.329 C 272.509 247.397, 266.737 239.284, 251.933 226.944 C 232.730 210.938, 226.988 201.060, 227.010 184.068 C 227.020 175.918, 229.092 170.044, 234.440 163 L 237.097 159.500 234.598 157.340 C 231.483 154.649, 223.244 151.500, 211.361 148.460 C 200.914 145.787, 184.575 144.733, 172.664 145.963 M 384 172.671 C 384 173.590, 384.637 175.053, 385.416 175.921 C 386.195 176.790, 387.952 179.717, 389.321 182.426 L 391.809 187.352 392.899 183.426 C 394.800 176.580, 394.353 173.085, 391.435 171.975 C 387.389 170.437, 384 170.754, 384 172.671 M 369 173.450 C 369 174.247, 370.514 177.413, 372.364 180.484 L 375.727 186.068 376.353 182.284 C 376.697 180.203, 376.983 177.037, 376.989 175.250 C 377 172.123, 376.848 172, 373 172 C 370.173 172, 369 172.425, 369 173.450 M 357 176.900 C 353.991 177.731, 353.753 179.869, 356.500 181.389 C 357.600 181.997, 359.980 183.545, 361.789 184.828 L 365.079 187.162 364.417 184.331 C 363.483 180.333, 361.675 176.686, 360.500 176.429 C 359.950 176.309, 358.375 176.521, 357 176.900 M 401.015 179.750 C 401.035 181.981, 402.590 184.483, 403.258 183.357 C 403.813 182.419, 402.390 178, 401.532 178 C 401.240 178, 401.007 178.787, 401.015 179.750 M 343.191 181.850 C 341.921 182.207, 340.847 182.725, 340.804 183 C 340.762 183.275, 342.085 185.641, 343.745 188.258 C 346.498 192.599, 346.815 192.819, 347.368 190.758 C 347.700 189.516, 347.979 186.813, 347.986 184.750 C 348 180.873, 347.574 180.615, 343.191 181.850 M 329.250 186.708 C 327.193 187.463, 327.828 189.657, 330.637 191.498 L 333.273 193.225 332.566 190.363 C 331.725 186.960, 330.936 186.090, 329.250 186.708 M 316.671 189.791 C 315.028 189.998, 314.024 190.641, 314.276 191.324 C 314.514 191.971, 315.495 194.892, 316.456 197.815 C 317.417 200.738, 318.362 202.972, 318.554 202.779 C 319.328 202.006, 320.773 190.464, 320.159 189.967 C 319.796 189.674, 318.227 189.594, 316.671 189.791 M 215.086 224.713 C 215.039 225.380, 215.921 228.262, 217.046 231.117 C 221.963 243.592, 223.408 261.149, 220.455 272.540 C 219.605 275.818, 216.680 284.028, 213.955 290.785 C 211.230 297.542, 209 303.986, 209 305.106 C 209 307.488, 211.402 321.292, 213.680 332 C 215.155 338.938, 221.966 356.282, 224.059 358.433 C 226.280 360.716, 225.656 357.680, 221.979 348.314 C 212.848 325.054, 212.865 315.303, 222.086 287.245 C 227.189 271.718, 228.346 258.801, 225.595 248.066 C 223.973 241.734, 215.253 222.356, 215.086 224.713 M 313 226.566 C 313 228.751, 321.430 240, 323.067 240 C 325.434 240, 322.691 232.606, 318.709 228.250 C 316.874 226.243, 313 225.101, 313 226.566 M 330.034 234.177 C 328.919 236.004, 328.006 238.701, 328.004 240.170 C 328 242.491, 328.661 243.059, 333.065 244.522 C 335.850 245.447, 338.323 246.010, 338.559 245.774 C 339.358 244.975, 334.510 231.629, 333.280 231.240 C 332.609 231.027, 331.148 232.349, 330.034 234.177 M 311.459 235.964 C 313.087 237.037, 314.661 237.672, 314.958 237.376 C 315.723 236.610, 311.926 233.999, 310.059 234.007 C 309.121 234.011, 309.678 234.790, 311.459 235.964 M 341.973 240.250 C 340.912 242.588, 340.034 245.001, 340.022 245.614 C 339.998 246.840, 348.794 250.540, 349.664 249.670 C 350.485 248.848, 345.979 236, 344.870 236 C 344.338 236, 343.034 237.912, 341.973 240.250 M 357.669 241.750 C 357.422 242.162, 356.272 244.199, 355.113 246.275 L 353.006 250.050 355.516 254.025 C 358.632 258.962, 361.003 259.276, 360.991 254.750 C 360.967 245.659, 359.280 239.060, 357.669 241.750 M 333.500 249.526 C 337.687 252.105, 340.599 252.778, 339.437 250.898 C 338.661 249.642, 332.712 246.984, 330.782 247.031 C 330.077 247.048, 331.300 248.171, 333.500 249.526 M 345.619 252.714 C 344.764 253.570, 347.994 257, 349.655 257 C 350.395 257, 350.986 256.663, 350.969 256.250 C 350.919 255.066, 346.312 252.021, 345.619 252.714 M 364.850 257 C 364.767 258.650, 364.655 260.563, 364.600 261.250 C 364.545 261.938, 365.570 262.651, 366.877 262.836 C 369.126 263.154, 369.216 262.965, 368.537 259.344 C 367.711 254.944, 367.253 254, 365.941 254 C 365.423 254, 364.933 255.350, 364.850 257 M 375.814 254.510 C 375.484 255.055, 374.752 257.188, 374.188 259.250 C 373.207 262.833, 373.269 263, 375.581 263 C 377.452 263, 377.977 262.491, 377.900 260.750 C 377.744 257.212, 376.476 253.419, 375.814 254.510 M 332.167 302.762 C 332.350 303.182, 333.724 305.994, 335.220 309.012 C 339.560 317.770, 341.127 325.381, 341.702 340.500 L 342.235 354.500 339.271 356.667 C 337.301 358.106, 335.840 360.455, 334.917 363.667 C 333.243 369.491, 332.987 389.143, 334.579 389.685 C 335.172 389.887, 337.872 387.410, 340.579 384.181 C 343.285 380.951, 348.060 376.327, 351.190 373.905 C 354.647 371.228, 356.899 368.715, 356.930 367.500 C 357.048 362.841, 353.868 338.275, 352.416 332.633 C 349.973 323.137, 345.429 314.578, 339.343 308.004 C 334.537 302.813, 331.087 300.293, 332.167 302.762" stroke="none" fill="black" fill-rule="evenodd"/>
</svg>